# xmcd CD database file
#
# Track frame offsets:
#	150
#	20715
#	38170
#	58388
#	67188
#	77225
#	88883
#	107598
#	119215
#	142025
#	151250
#	160473
#	171258
#	188213
#	203340
#	220025
#
# Disc length: 3148 seconds
#
# Revision: 0
# Processed by: cddbd v1.5.1PL0 Copyright (c) Steve Scherf et al.
# Submitted via: CDex 1.60beta1
#
DISCID=f00c4a10
DTITLE=Various Artist - Hot IX
DYEAR=1900
DGENRE=Jazz
TTITLE0=Axidentals - Bam Bam Bam
TTITLE1=Axidentals - Caravan
TTITLE2=Axidentals - A Sleeping Bee
TTITLE3=Axidentals - Quiet Now
TTITLE4=Axidentals - You're Nobody
TTITLE5=Axidentals - Gotta Get You Into My Life
TTITLE6=Axidentals - You Can Call Me Al
TTITLE7=Axidentals - Mack The Knife
TTITLE8=Axidentals - Ray's Idea
TTITLE9=Et Cetera - Singing In The Rain
TTITLE10=Et Cetera - If I Only Had A Brain
TTITLE11=Et Cetera - Scat Blues in C
TTITLE12=Sus 4 - A Night in Tunisia
TTITLE13=Sus 4 - For All We Knw
TTITLE14=Sus 4 - We
TTITLE15=Sus 4 - Get On Your Feet
EXTD=
EXTT0=
EXTT1=
EXTT2=
EXTT3=
EXTT4=
EXTT5=
EXTT6=
EXTT7=
EXTT8=
EXTT9=
EXTT10=
EXTT11=
EXTT12=
EXTT13=
EXTT14=
EXTT15=
PLAYORDER=
